<?xml version="1.0" encoding="UTF-8"?>
<!DOCTYPE svg PUBLIC "-//W3C//DTD SVG 1.1//EN" "http://www.w3.org/Graphics/SVG/1.1/DTD/svg11.dtd">
<svg xmlns="http://www.w3.org/2000/svg" version="1.1" width="93px" height="20px" style="shape-rendering:geometricPrecision; text-rendering:geometricPrecision; image-rendering:optimizeQuality; fill-rule:evenodd; clip-rule:evenodd" xmlns:xlink="http://www.w3.org/1999/xlink">
<g><path style="opacity:0.879" fill="#109447" d="M -0.5,-0.5 C 10.5,-0.5 21.5,-0.5 32.5,-0.5C 32.5,6.16667 32.5,12.8333 32.5,19.5C 21.5,19.5 10.5,19.5 -0.5,19.5C -0.5,12.8333 -0.5,6.16667 -0.5,-0.5 Z"/></g>
<g><path style="opacity:0.877" fill="#0c72b6" d="M 48.5,-0.5 C 58.1667,-0.5 67.8333,-0.5 77.5,-0.5C 77.5,6.16667 77.5,12.8333 77.5,19.5C 67.8333,19.5 58.1667,19.5 48.5,19.5C 48.5,12.8333 48.5,6.16667 48.5,-0.5 Z"/></g>
<g><path style="opacity:1" fill="#36b149" d="M 3.5,0.5 C 11.8333,0.5 20.1667,0.5 28.5,0.5C 29.4508,3.21526 30.1175,6.04859 30.5,9C 30.6953,11.7927 30.0287,14.2927 28.5,16.5C 20.1667,17.8333 11.8333,17.8333 3.5,16.5C 0.832032,12.6958 -0.167968,8.36251 0.5,3.5C 1.5,3.5 2.5,3.5 3.5,3.5C 3.5,2.5 3.5,1.5 3.5,0.5 Z"/></g>
<g><path style="opacity:1" fill="#309d4c" d="M 13.5,2.5 C 20.3694,2.53767 22.8694,5.871 21,12.5C 18.8328,15.2868 15.9994,16.1201 12.5,15C 9.59838,10.5015 9.93172,6.33481 13.5,2.5 Z"/></g>
<g><path style="opacity:1" fill="#f1e318" d="M 54.5,5.5 C 56.8211,5.22888 58.8211,5.89554 60.5,7.5C 63.208,5.56434 66.208,5.06434 69.5,6C 68.5,7 67.5,8 66.5,9C 68.1161,9.61524 69.4495,10.6152 70.5,12C 66.4087,13.2272 62.9087,12.3939 60,9.5C 59.5172,10.448 59.3505,11.448 59.5,12.5C 57.8333,12.5 56.1667,12.5 54.5,12.5C 54.5,10.1667 54.5,7.83333 54.5,5.5 Z"/></g>
</svg>
